<svg width="231" height="86" viewBox="0 0 231 86" fill="none" xmlns="http://www.w3.org/2000/svg">
<path d="M0.517317 22.0493C0.022217 21.8729 -0.142789 21.504 0.132266 21.2153L6.81609 14.4633C7.09115 14.1746 7.7513 14.0784 8.2464 14.2388C8.7415 14.4152 8.90651 14.784 8.63145 15.0727L1.94762 21.8248C1.64506 22.1135 1.01242 22.2097 0.517317 22.0493Z" fill="#BCD2FF" fill-opacity="0.2"/>
<path d="M1.39967 26.0268C0.904566 25.8504 0.739527 25.4815 1.01458 25.1928L12.0443 14.0303C12.3194 13.7416 12.9795 13.6454 13.4746 13.8058C13.9697 13.9822 14.1347 14.3511 13.8597 14.6398L2.82994 25.8023C2.55489 26.107 1.89477 26.2032 1.39967 26.0268Z" fill="#BCD2FF" fill-opacity="0.2"/>
<path d="M2.30479 30.02C1.80969 29.8436 1.64469 29.4747 1.91974 29.186L17.2678 13.6612C17.5429 13.3725 18.203 13.2763 18.6981 13.4366C19.1932 13.6131 19.3582 13.9819 19.0832 14.2706L3.7351 29.7955C3.43254 30.0842 2.79989 30.1964 2.30479 30.02Z" fill="#BCD2FF" fill-opacity="0.2"/>
<path d="M3.18604 34.0137C2.69094 33.8373 2.5259 33.4684 2.80096 33.1797L22.4399 13.2925C22.715 13.0038 23.3751 12.9076 23.8702 13.068C24.3653 13.2444 24.5303 13.6133 24.2553 13.902L4.61632 33.7892C4.31376 34.0779 3.68114 34.1741 3.18604 34.0137Z" fill="#BCD2FF" fill-opacity="0.2"/>
<path d="M4.06886 37.9914C3.57376 37.815 3.40872 37.4461 3.68377 37.1574L27.6411 12.9239C27.9162 12.6352 28.5763 12.5389 29.0714 12.6993C29.5665 12.8757 29.7315 13.2446 29.4565 13.5333L5.49916 37.7669C5.22411 38.0716 4.56396 38.1678 4.06886 37.9914Z" fill="#BCD2FF" fill-opacity="0.2"/>
<path d="M4.9441 41.9851C4.449 41.8087 4.28396 41.4398 4.55902 41.1511L32.8347 12.5552C33.1097 12.2665 33.7699 12.1703 34.265 12.3307C34.7601 12.5071 34.9251 12.876 34.6501 13.1647L6.37437 41.7606C6.09932 42.0493 5.4667 42.1455 4.9441 41.9851Z" fill="#BCD2FF" fill-opacity="0.2"/>
<path d="M5.85755 45.9622C5.36245 45.7858 5.19741 45.4169 5.47247 45.1282L38.039 12.17C38.3416 11.8813 38.9742 11.785 39.4693 11.9454C39.9644 12.1218 40.1294 12.4907 39.8544 12.7794L7.28786 45.7377C6.9853 46.0424 6.35265 46.1386 5.85755 45.9622Z" fill="#BCD2FF" fill-opacity="0.2"/>
<path d="M6.73133 49.9555C6.23623 49.7791 6.07119 49.4102 6.34625 49.1215L43.2312 11.8169C43.5062 11.5282 44.1663 11.432 44.6614 11.5924C45.1565 11.7688 45.3216 12.1377 45.0465 12.4264L8.16161 49.731C7.85904 50.0197 7.22643 50.1159 6.73133 49.9555Z" fill="#BCD2FF" fill-opacity="0.2"/>
<path d="M7.61561 53.9492C7.12051 53.7728 6.95547 53.4039 7.23052 53.1152L48.4338 11.4483C48.7089 11.1596 49.369 11.0634 49.8641 11.2237C50.3592 11.4002 50.5243 11.769 50.2492 12.0577L9.04588 53.7247C8.74332 54.0134 8.11071 54.1096 7.61561 53.9492Z" fill="#BCD2FF" fill-opacity="0.2"/>
<path d="M8.49095 57.9263C7.99585 57.7499 7.83084 57.381 8.1059 57.0923L53.6 11.063C53.8751 10.7743 54.5352 10.6781 55.0303 10.8385C55.5254 11.0149 55.6905 11.3838 55.4154 11.6725L9.92126 57.7018C9.6462 58.0065 9.01355 58.1027 8.49095 57.9263Z" fill="#BCD2FF" fill-opacity="0.2"/>
<path d="M9.39906 61.92C8.90396 61.7436 8.73892 61.3747 9.01397 61.086L58.8265 10.6944C59.1015 10.4057 59.7617 10.3095 60.2568 10.4698C60.7519 10.6463 60.9169 11.0151 60.6419 11.3038L10.8293 61.6955C10.5268 61.9842 9.89416 62.0804 9.39906 61.92Z" fill="#BCD2FF" fill-opacity="0.2"/>
<path d="M10.2818 65.8971C9.78674 65.7207 9.62174 65.3518 9.89679 65.0631L64.0277 10.3091C64.3027 10.0204 64.9629 9.9242 65.458 10.0846C65.9531 10.261 66.1181 10.6299 65.843 10.9186L11.7122 65.6726C11.4096 65.9773 10.7769 66.0736 10.2818 65.8971Z" fill="#BCD2FF" fill-opacity="0.2"/>
<path d="M11.1624 69.8909C10.6673 69.7145 10.5022 69.3456 10.7773 69.0569L69.199 9.95658C69.4741 9.6679 70.1342 9.57166 70.6293 9.73205C71.1244 9.90846 71.2895 10.2773 71.0144 10.566L12.5926 69.6664C12.3176 69.9551 11.6575 70.0673 11.1624 69.8909Z" fill="#BCD2FF" fill-opacity="0.2"/>
<path d="M12.0377 73.8846C11.5426 73.7082 11.3776 73.3393 11.6526 73.0506L74.3928 9.58793C74.6679 9.29924 75.328 9.20301 75.8231 9.36339C76.3182 9.53981 76.4832 9.90869 76.2082 10.1974L13.468 73.6601C13.193 73.9488 12.5603 74.045 12.0377 73.8846Z" fill="#BCD2FF" fill-opacity="0.2"/>
<path d="M12.9526 77.8617C12.4575 77.6853 12.2925 77.3164 12.5676 77.0278L79.5985 9.20267C79.8736 8.91399 80.5337 8.81776 81.0288 8.97814C81.5239 9.15456 81.689 9.52343 81.4139 9.81212L14.3829 77.6372C14.0804 77.9259 13.4477 78.0381 12.9526 77.8617Z" fill="#BCD2FF" fill-opacity="0.2"/>
<path d="M14.0753 81.5988C13.5802 81.4224 13.4152 81.0535 13.6902 80.7648L84.7921 8.83402C85.0671 8.54534 85.7273 8.44911 86.2224 8.60949C86.7175 8.78591 86.8825 9.15478 86.6074 9.44347L15.5056 81.3743C15.203 81.663 14.5704 81.7592 14.0753 81.5988Z" fill="#BCD2FF" fill-opacity="0.2"/>
<path d="M16.666 83.8605C16.1709 83.6841 16.0059 83.3152 16.2809 83.0265L89.9683 8.48148C90.2433 8.1928 90.9035 8.09657 91.3985 8.25695C91.8936 8.43337 92.0587 8.80224 91.7836 9.09093L18.0963 83.652C17.8212 83.9247 17.1886 84.0209 16.666 83.8605Z" fill="#BCD2FF" fill-opacity="0.2"/>
<path d="M20.2367 85.1437C19.7416 84.9673 19.5766 84.5984 19.8516 84.3097L95.1893 8.09672C95.4919 7.80803 96.1245 7.7118 96.6196 7.87218C97.1147 8.0486 97.2797 8.41748 97.0046 8.70616L21.6395 84.9192C21.3644 85.2078 20.7318 85.3201 20.2367 85.1437Z" fill="#BCD2FF" fill-opacity="0.2"/>
<path d="M24.6947 85.5283C24.1996 85.3519 24.0346 84.983 24.3096 84.6944L100.39 7.72757C100.665 7.43889 101.325 7.34266 101.82 7.50304C102.315 7.67946 102.48 8.04834 102.205 8.33702L26.0975 85.3038C25.8224 85.5925 25.1898 85.6887 24.6947 85.5283Z" fill="#BCD2FF" fill-opacity="0.2"/>
<path d="M29.7836 85.2394C29.2885 85.063 29.1234 84.6941 29.3985 84.4054L105.589 7.35843C105.864 7.06975 106.524 6.97352 107.019 7.1339C107.514 7.31032 107.679 7.67919 107.404 7.96788L31.2414 85.0149C30.9388 85.3035 30.3062 85.3998 29.7836 85.2394Z" fill="#BCD2FF" fill-opacity="0.2"/>
<path d="M34.9224 84.9348C34.4273 84.7584 34.2622 84.3895 34.5373 84.1008L110.755 6.97367C111.058 6.68498 111.69 6.58876 112.185 6.74914C112.68 6.92556 112.846 7.29443 112.57 7.58311L36.3251 84.7103C36.0501 85.015 35.4175 85.1112 34.9224 84.9348Z" fill="#BCD2FF" fill-opacity="0.2"/>
<path d="M40.0158 84.6459C39.5207 84.4694 39.3556 84.1006 39.6307 83.8119L115.959 6.60453C116.234 6.31584 116.894 6.21961 117.389 6.38C117.884 6.55641 118.049 6.92529 117.774 7.21398L41.446 84.4213C41.171 84.71 40.5384 84.8223 40.0158 84.6459Z" fill="#BCD2FF" fill-opacity="0.2"/>
<path d="M45.1561 84.3574C44.661 84.181 44.496 83.8121 44.7711 83.5234L121.154 6.23588C121.429 5.94719 122.089 5.85096 122.584 6.01134C123.079 6.18776 123.244 6.55664 122.969 6.84532L46.5589 84.1329C46.2839 84.4215 45.6512 84.5178 45.1561 84.3574Z" fill="#BCD2FF" fill-opacity="0.2"/>
<path d="M50.2748 84.0689C49.7797 83.8925 49.6146 83.5236 49.8897 83.2349L126.355 5.86723C126.658 5.57854 127.29 5.48231 127.785 5.64269C128.281 5.81911 128.446 6.18799 128.17 6.47667L51.7051 83.8444C51.4025 84.1331 50.7699 84.2293 50.2748 84.0689Z" fill="#BCD2FF" fill-opacity="0.2"/>
<path d="M55.3943 83.7644C54.8992 83.5879 54.7342 83.2191 55.0092 82.9304L131.557 5.48246C131.832 5.19377 132.492 5.09754 132.987 5.25793C133.483 5.43434 133.648 5.80322 133.372 6.09191L56.8246 83.5398C56.522 83.8446 55.8894 83.9408 55.3943 83.7644Z" fill="#BCD2FF" fill-opacity="0.2"/>
<path d="M60.5086 83.4755C60.0135 83.2991 59.8484 82.9302 60.1235 82.6415L136.754 5.12943C137.029 4.84074 137.689 4.74452 138.184 4.9049C138.679 5.08132 138.844 5.45019 138.569 5.73888L61.9388 83.251C61.6363 83.5396 61.0037 83.6519 60.5086 83.4755Z" fill="#BCD2FF" fill-opacity="0.2"/>
<path d="M65.6205 83.1866C65.1254 83.0101 64.9604 82.6413 65.2354 82.3526L141.948 4.76029C142.251 4.4716 142.884 4.37538 143.379 4.53576C143.874 4.71218 144.039 5.08105 143.764 5.36974L67.0508 82.962C66.7482 83.2507 66.1156 83.3469 65.6205 83.1866Z" fill="#BCD2FF" fill-opacity="0.2"/>
<path d="M70.7378 82.8981C70.2427 82.7217 70.0777 82.3528 70.3527 82.0641L147.148 4.39164C147.423 4.10295 148.083 4.00672 148.578 4.1671C149.074 4.34352 149.239 4.7124 148.964 5.00108L72.1681 82.6735C71.8655 82.9622 71.2329 83.0585 70.7378 82.8981Z" fill="#BCD2FF" fill-opacity="0.2"/>
<path d="M75.849 82.593C75.3539 82.4166 75.1889 82.0477 75.4639 81.759L152.342 4.00638C152.617 3.7177 153.277 3.62147 153.772 3.78185C154.267 3.95827 154.432 4.32714 154.157 4.61583L77.2793 82.3685C76.9768 82.6732 76.3441 82.7694 75.849 82.593Z" fill="#BCD2FF" fill-opacity="0.2"/>
<path d="M80.9685 82.3045C80.4734 82.1281 80.3084 81.7592 80.5834 81.4706L157.516 3.63773C157.791 3.34905 158.452 3.25282 158.947 3.4132C159.442 3.58962 159.607 3.9585 159.332 4.24718L82.3988 82.08C82.0962 82.3687 81.4636 82.481 80.9685 82.3045Z" fill="#BCD2FF" fill-opacity="0.2"/>
<path d="M86.0857 82.0156C85.5906 81.8392 85.4256 81.4703 85.7006 81.1816L162.716 3.26859C162.991 2.9799 163.651 2.88368 164.146 3.04406C164.641 3.22048 164.807 3.58935 164.531 3.87804L87.516 81.7911C87.2134 82.0797 86.5808 82.192 86.0857 82.0156Z" fill="#BCD2FF" fill-opacity="0.2"/>
<path d="M91.2022 81.7272C90.7071 81.5508 90.542 81.1819 90.8171 80.8932L167.915 2.89994C168.19 2.61126 168.85 2.51502 169.345 2.6754C169.841 2.85182 170.006 3.2207 169.73 3.50939L92.6324 81.5026C92.3299 81.7913 91.6973 81.8876 91.2022 81.7272Z" fill="#BCD2FF" fill-opacity="0.2"/>
<path d="M96.3149 81.4226C95.8198 81.2462 95.6548 80.8773 95.9299 80.5886L173.11 2.51517C173.385 2.22649 174.046 2.13026 174.541 2.29064C175.036 2.46706 175.201 2.83594 174.926 3.12462L97.7452 81.198C97.4427 81.5028 96.81 81.599 96.3149 81.4226Z" fill="#BCD2FF" fill-opacity="0.2"/>
<path d="M101.429 81.1336C100.934 80.9732 100.769 80.5883 101.044 80.2996L178.307 2.14603C178.582 1.85735 179.242 1.76112 179.737 1.9215C180.232 2.09792 180.397 2.46679 180.122 2.75548L102.859 80.9091C102.584 81.1978 101.924 81.31 101.429 81.1336Z" fill="#BCD2FF" fill-opacity="0.2"/>
<path d="M106.549 80.8452C106.053 80.6687 105.888 80.2999 106.164 80.0112L183.482 1.77738C183.757 1.4887 184.417 1.39246 184.912 1.55285C185.407 1.72926 185.572 2.09814 185.297 2.38683L107.979 80.6206C107.704 80.9093 107.044 81.0055 106.549 80.8452Z" fill="#BCD2FF" fill-opacity="0.2"/>
<path d="M111.67 80.5567C111.174 80.3803 111.009 80.0114 111.284 79.7227L188.685 1.40873C188.988 1.12004 189.62 1.02381 190.115 1.18419C190.61 1.36061 190.775 1.72949 190.5 2.01818L113.1 80.3322C112.825 80.6208 112.165 80.7171 111.67 80.5567Z" fill="#BCD2FF" fill-opacity="0.2"/>
<path d="M116.781 80.2677C116.286 80.0913 116.121 79.7225 116.396 79.4338L193.879 1.03959C194.154 0.750901 194.814 0.654673 195.309 0.815054C195.804 0.991473 195.969 1.36035 195.694 1.64903L118.211 80.0432C117.936 80.3319 117.276 80.4281 116.781 80.2677Z" fill="#BCD2FF" fill-opacity="0.2"/>
<path d="M121.899 79.9632C121.404 79.7868 121.239 79.4179 121.514 79.1292L199.079 0.670934C199.354 0.382248 200.015 0.286021 200.51 0.446402C201.005 0.622821 201.17 0.991699 200.895 1.28038L123.329 79.7387C123.054 80.0434 122.394 80.1397 121.899 79.9632Z" fill="#BCD2FF" fill-opacity="0.2"/>
<path d="M127.017 79.6743C126.522 79.4979 126.357 79.129 126.632 78.8403L204.28 0.301793C204.555 0.0131078 205.215 -0.0831197 205.71 0.0772611C206.205 0.25368 206.37 0.622553 206.095 0.911239L128.475 79.4498C128.172 79.7384 127.512 79.8507 127.017 79.6743Z" fill="#BCD2FF" fill-opacity="0.2"/>
<path d="M132.132 79.3855C131.637 79.2091 131.472 78.8402 131.747 78.5515L208.707 0.702672C208.982 0.413987 209.642 0.317759 210.137 0.47814C210.633 0.654559 210.798 1.02343 210.522 1.31212L133.562 79.161C133.287 79.4497 132.654 79.5459 132.132 79.3855Z" fill="#BCD2FF" fill-opacity="0.2"/>
<path d="M137.244 79.081C136.749 78.9046 136.584 78.5358 136.859 78.2471L212.251 2.00199C212.526 1.7133 213.186 1.61708 213.682 1.77746C214.177 1.95388 214.342 2.32275 214.067 2.61143L138.674 78.8726C138.399 79.1612 137.766 79.2575 137.244 79.081Z" fill="#BCD2FF" fill-opacity="0.2"/>
<path d="M142.389 78.7922C141.894 78.6158 141.729 78.2469 142.004 77.9582L214.866 4.26322C215.141 3.97454 215.802 3.8783 216.297 4.03869C216.792 4.2151 216.957 4.58398 216.682 4.87267L143.792 78.5677C143.517 78.8563 142.884 78.9686 142.389 78.7922Z" fill="#BCD2FF" fill-opacity="0.2"/>
<path d="M147.478 78.5036C146.983 78.3272 146.818 77.9583 147.093 77.6696L215.939 8.03227C216.214 7.74358 216.875 7.64735 217.37 7.80773C217.865 7.98415 218.03 8.35303 217.755 8.64171L148.908 78.2791C148.633 78.5678 148.001 78.68 147.478 78.5036Z" fill="#BCD2FF" fill-opacity="0.2"/>
<path d="M152.619 78.2152C152.123 78.0388 151.958 77.6699 152.233 77.3812L216.816 12.042C217.092 11.7533 217.752 11.6571 218.247 11.8175C218.742 11.9939 218.907 12.3628 218.632 12.6515L154.049 77.9906C153.746 78.2793 153.114 78.3756 152.619 78.2152Z" fill="#BCD2FF" fill-opacity="0.2"/>
<path d="M157.738 77.9102C157.243 77.7338 157.078 77.3649 157.353 77.0762L217.673 16.0513C217.948 15.7626 218.608 15.6664 219.103 15.8268C219.598 15.9872 219.763 16.3721 219.488 16.6608L159.168 77.6857C158.866 77.9904 158.233 78.0866 157.738 77.9102Z" fill="#BCD2FF" fill-opacity="0.2"/>
<path d="M162.855 77.6213C162.36 77.4449 162.195 77.0761 162.47 76.7874L218.526 20.0767C218.801 19.788 219.462 19.6918 219.957 19.8522C220.452 20.0286 220.617 20.3975 220.342 20.6861L164.286 77.3968C163.983 77.6855 163.35 77.7978 162.855 77.6213Z" fill="#BCD2FF" fill-opacity="0.2"/>
<path d="M167.972 77.333C167.477 77.1566 167.312 76.7877 167.587 76.499L219.38 24.1026C219.655 23.8139 220.315 23.7177 220.81 23.878C221.305 24.0545 221.47 24.4233 221.195 24.712L169.402 77.1085C169.099 77.3972 168.467 77.4934 167.972 77.333Z" fill="#BCD2FF" fill-opacity="0.2"/>
<path d="M173.086 77.044C172.591 76.8676 172.426 76.4988 172.701 76.2101L220.23 28.1119C220.506 27.8232 221.166 27.7269 221.661 27.8873C222.156 28.0637 222.321 28.4326 222.046 28.7213L174.516 76.8195C174.214 77.1082 173.581 77.2044 173.086 77.044Z" fill="#BCD2FF" fill-opacity="0.2"/>
<path d="M178.203 76.7552C177.708 76.5788 177.543 76.2099 177.818 75.9212L221.084 32.1372C221.387 31.8486 222.019 31.7523 222.515 31.9127C223.01 32.0891 223.175 32.458 222.9 32.7467L179.633 76.5307C179.331 76.8193 178.698 76.9156 178.203 76.7552Z" fill="#BCD2FF" fill-opacity="0.2"/>
<path d="M183.315 76.4507C182.82 76.2743 182.655 75.9054 182.93 75.6167L221.96 36.147C222.236 35.8583 222.896 35.7621 223.391 35.9225C223.886 36.0989 224.051 36.4678 223.776 36.7565L184.745 76.2262C184.443 76.5309 183.81 76.6271 183.315 76.4507Z" fill="#BCD2FF" fill-opacity="0.2"/>
<path d="M188.437 76.1619C187.942 75.9854 187.777 75.6166 188.052 75.3279L222.819 40.1724C223.094 39.8837 223.754 39.7875 224.249 39.9479C224.744 40.1243 224.909 40.4932 224.634 40.7819L189.867 75.9373C189.565 76.226 188.932 76.3383 188.437 76.1619Z" fill="#BCD2FF" fill-opacity="0.2"/>
<path d="M193.55 75.8729C193.055 75.6965 192.89 75.3276 193.165 75.039L223.669 44.1817C223.944 43.893 224.604 43.7968 225.099 43.9571C225.594 44.1336 225.759 44.5024 225.484 44.7911L194.981 75.6484C194.678 75.9371 194.045 76.0333 193.55 75.8729Z" fill="#BCD2FF" fill-opacity="0.2"/>
<path d="M198.67 75.5685C198.175 75.392 198.01 75.0232 198.285 74.7345L224.525 48.1914C224.8 47.9028 225.46 47.8065 225.955 47.9669C226.45 48.1433 226.615 48.5122 226.34 48.8009L200.1 75.36C199.825 75.6486 199.165 75.7449 198.67 75.5685Z" fill="#BCD2FF" fill-opacity="0.2"/>
<path d="M203.782 75.2801C203.287 75.1037 203.122 74.7348 203.397 74.4461L225.374 52.2173C225.649 51.9286 226.309 51.8324 226.805 51.9928C227.3 52.1692 227.465 52.5381 227.19 52.8268L205.213 75.0556C204.938 75.3442 204.278 75.4565 203.782 75.2801Z" fill="#BCD2FF" fill-opacity="0.2"/>
<path d="M208.892 74.9912C208.397 74.8148 208.231 74.4459 208.507 74.1573L226.22 56.2427C226.495 55.954 227.155 55.8578 227.65 56.0182C228.145 56.1946 228.311 56.5635 228.035 56.8522L210.322 74.7667C210.047 75.0554 209.387 75.1677 208.892 74.9912Z" fill="#BCD2FF" fill-opacity="0.2"/>
<path d="M214.013 74.7023C213.518 74.5259 213.353 74.157 213.628 73.8683L227.078 60.252C227.353 59.9633 228.014 59.8671 228.509 60.0275C229.004 60.2039 229.169 60.5727 228.894 60.8614L215.444 74.4778C215.168 74.7665 214.508 74.8627 214.013 74.7023Z" fill="#BCD2FF" fill-opacity="0.2"/>
<path d="M219.133 74.4144C218.638 74.238 218.473 73.8691 218.748 73.5804L227.935 64.2784C228.237 63.9897 228.87 63.8934 229.365 64.0538C229.86 64.2302 230.025 64.5991 229.75 64.8878L220.563 74.1899C220.288 74.4786 219.628 74.5748 219.133 74.4144Z" fill="#BCD2FF" fill-opacity="0.2"/>
<path d="M224.825 73.5479C224.33 73.3715 224.165 73.0026 224.44 72.714L228.759 68.3516C229.034 68.0629 229.694 67.9667 230.189 68.1271C230.684 68.2874 230.849 68.6724 230.574 68.961L226.256 73.3234C225.953 73.6121 225.321 73.7083 224.825 73.5479Z" fill="#BCD2FF" fill-opacity="0.2"/>
</svg>
