<svg width="25" height="24" viewBox="0 0 25 24" fill="none" xmlns="http://www.w3.org/2000/svg">
<path d="M5.36906 8.30592C5.58449 8.11004 5.87663 8 6.18124 8C6.48585 8 6.778 8.11004 6.99342 8.30592L12.6798 13.4779L18.3663 8.30592C18.5829 8.11559 18.8731 8.01028 19.1743 8.01266C19.4755 8.01504 19.7636 8.12492 19.9766 8.31865C20.1896 8.51237 20.3104 8.77443 20.313 9.04839C20.3157 9.32235 20.1999 9.58628 19.9906 9.78334L13.492 15.6941C13.2766 15.89 12.9845 16 12.6798 16C12.3752 16 12.0831 15.89 11.8677 15.6941L5.36906 9.78334C5.1537 9.5874 5.03271 9.32169 5.03271 9.04463C5.03271 8.76757 5.1537 8.50186 5.36906 8.30592Z" fill="#C0C0C0"/>
</svg>
