<svg width="125" height="125" viewBox="0 0 125 125" fill="none" xmlns="http://www.w3.org/2000/svg">
<path d="M47.7806 88.9713C50.3199 90.5035 53.7836 92.4921 56.5147 93.5573M56.5147 93.5573C56.8293 93.6801 57.0121 91.1517 57.0107 91.0344C56.9819 88.462 56.6174 85.9723 56.1915 83.4428M56.5147 93.5573C44.8793 82.4056 42.6194 66.2686 49.3538 56.9591C50.0212 56.0364 50.7487 55.0328 51.5622 54.0983M51.5622 54.0983C52.8579 52.6101 54.3721 51.2971 56.2107 50.7649C57.9075 50.2738 60.3248 50.3489 61.6449 51.6423C64.1108 54.0585 62.1946 58.2173 58.9034 58.707C56.0112 59.1375 52.3327 56.8866 51.5622 54.0983ZM51.5622 54.0983C51.546 54.0395 51.531 53.9804 51.5174 53.9212C48.228 39.6147 63.0577 30.7841 74.9273 32.6315" stroke="url(#paint0_linear_55_2703)" stroke-width="5.58817" stroke-miterlimit="1.5" stroke-linecap="round" stroke-linejoin="round"/>
<defs>
<linearGradient id="paint0_linear_55_2703" x1="39.8323" y1="75.2044" x2="84.5882" y2="49.3646" gradientUnits="userSpaceOnUse">
<stop stop-color="#BF6FFF"/>
<stop offset="1" stop-color="#70C3FF"/>
</linearGradient>
</defs>
</svg>
